<?xml version="1.0" encoding="UTF-8" standalone="no"?>
<svg
   xmlns:dc="http://purl.org/dc/elements/1.1/"
   xmlns:cc="http://creativecommons.org/ns#"
   xmlns:rdf="http://www.w3.org/1999/02/22-rdf-syntax-ns#"
   xmlns:svg="http://www.w3.org/2000/svg"
   xmlns="http://www.w3.org/2000/svg"
   xmlns:sodipodi="http://sodipodi.sourceforge.net/DTD/sodipodi-0.dtd"
   xmlns:inkscape="http://www.inkscape.org/namespaces/inkscape"
   viewBox="0 0 500 500"
   version="1.1"
   id="svg_null"
   sodipodi:docname="logo.svg"
   inkscape:version="0.92.4 (unknown)"
   inkscape:export-filename="/home/asad/Downloads/Emotion-Analyzer/images/logo.png"
   inkscape:export-xdpi="96"
   inkscape:export-ydpi="96">
  <metadata
     id="metadata25">
    <rdf:RDF>
      <cc:Work
         rdf:about="">
        <dc:format>image/svg+xml</dc:format>
        <dc:type
           rdf:resource="http://purl.org/dc/dcmitype/StillImage" />
      </cc:Work>
    </rdf:RDF>
  </metadata>
  <defs
     id="defs23">
    <clipPath
       clipPathUnits="userSpaceOnUse"
       id="clipPath3744">
      <circle
         style="display:inline;fill:#7aa5d2"
         r="87.5"
         cy="181.5"
         cx="250.5"
         id="circle3746" />
    </clipPath>
    <filter
       style="color-interpolation-filters:sRGB;"
       height="1.4"
       width="1.4"
       y="-0.2"
       x="-0.2"
       inkscape:label="Outline"
       id="filter5816">
      <feGaussianBlur
         in="SourceAlpha"
         stdDeviation="1.88"
         result="blur1"
         id="feGaussianBlur5792" />
      <feComposite
         in="blur1"
         in2="SourceGraphic"
         operator="out"
         result="composite1"
         id="feComposite5794" />
      <feColorMatrix
         values="1 0 0 0 0 0 1 0 0 0 0 0 1 0 0 0 0 0 100 -0 "
         result="colormatrix1"
         id="feColorMatrix5796" />
      <feGaussianBlur
         stdDeviation="0.01"
         result="blur2"
         id="feGaussianBlur5798" />
      <feComposite
         in="blur2"
         in2="blur2"
         operator="over"
         result="composite2"
         id="feComposite5800" />
      <feColorMatrix
         values="1 0 0 0 0 0 1 0 0 0 0 0 1 0 0 0 0 0 1 -1.02696e-15 "
         result="colormatrix2"
         id="feColorMatrix5802" />
      <feGaussianBlur
         stdDeviation="1"
         result="blur3"
         id="feGaussianBlur5804" />
      <feColorMatrix
         values="1 0 0 0 0 0 1 0 0 0 0 0 1 0 0 0 0 0 5 -1 "
         result="colormatrix3"
         id="feColorMatrix5806" />
      <feFlood
         flood-opacity="1"
         flood-color="rgb(255,255,255)"
         result="flood"
         id="feFlood5808" />
      <feComposite
         in="flood"
         in2="colormatrix3"
         k2="1"
         operator="in"
         result="composite3"
         id="feComposite5810" />
      <feComposite
         in="SourceGraphic"
         in2="colormatrix3"
         operator="out"
         result="composite4"
         id="feComposite5812" />
      <feComposite
         in="composite4"
         in2="composite3"
         k2="0"
         k3="1"
         operator="arithmetic"
         result="composite5"
         id="feComposite5814" />
    </filter>
  </defs>
  <sodipodi:namedview
     pagecolor="#ffffff"
     bordercolor="#666666"
     borderopacity="1"
     objecttolerance="10"
     gridtolerance="10"
     guidetolerance="10"
     inkscape:pageopacity="0"
     inkscape:pageshadow="2"
     inkscape:window-width="1600"
     inkscape:window-height="823"
     id="namedview21"
     showgrid="false"
     inkscape:zoom="1.888"
     inkscape:cx="210.0941"
     inkscape:cy="242.86025"
     inkscape:window-x="0"
     inkscape:window-y="0"
     inkscape:window-maximized="1"
     inkscape:current-layer="root" />
  <g
     id="root"
     style="fill:none;fill-rule:evenodd;stroke:none;stroke-width:1">
    <path
       style="fill:#7b6ed7;fill-opacity:1;fill-rule:evenodd;stroke:none;stroke-width:1.19975781;stroke-opacity:1"
       d="m 249.76477,141.20404 c -3.70029,1.11648 -11.43376,-2.1926 -12.58594,3.29687 1.47573,4.73744 9.00123,7.84001 12.16211,2.75977 1.39177,-2.33755 6.99965,-7.40977 1.41207,-6.09199 z m 17.45898,2.77148 c -3.67728,8.85829 -7.88485,17.48158 -11.87695,26.19922 6.88961,8.94612 12.05363,19.2428 20.15625,27.23242 7.82149,-2.47886 8.94444,-12.01077 13.5099,-17.72049 4.66527,-8.40816 9.1247,-16.93637 14.12877,-25.15255 -11.18211,-5.49791 -22.98816,-9.86839 -35.2832,-12.06446 l -0.38843,0.92148 z m -48.79297,2.10352 c -26.21386,8.32983 -49.06716,26.6742 -62.68359,50.59375 14.847,15.57861 27.00978,33.47256 41.83398,49.07031 6.25078,1.51371 7.64655,-6.31781 9.96386,-10.19343 9.97985,-21.22516 20.38319,-42.29983 28.61427,-64.28899 -4.03934,-9.39087 -11.57544,-16.68038 -16.08789,-25.80664 l -0.93449,0.35599 z m 95.8457,18.6289 c -8.33676,17.50693 -17.94873,34.36201 -27.37109,51.29688 12.72099,17.63913 23.91255,36.80047 37.76758,53.375 6.21582,1.7793 7.73931,-6.41304 10.63753,-9.98418 7.10004,-12.11836 13.12071,-24.86313 20.87028,-36.59981 -6.39222,-23.92827 -21.05633,-45.46341 -40.81836,-60.36523 -0.36198,0.75911 -0.72396,1.51823 -1.08594,2.27734 z m -67.2832,26.8418 c -5.37801,3.40363 -5.56571,10.83111 -8.98828,15.74414 -8.14987,18.54076 -18.73172,36.31578 -24.49219,55.74805 0.53847,7.06547 7.59192,10.98466 11.03125,16.59765 2.03706,3.92355 8.38672,4.67508 9.74465,-0.32077 11.27263,-20.03153 23.41045,-39.80187 32.4077,-60.95657 0.56083,-7.20059 -6.46217,-11.77731 -9.53516,-17.57422 -2.4749,-3.56384 -5.27605,-9.75679 -10.16797,-9.23828 z m -99.62304,22.9707 c -10.77232,32.17509 -5.85148,69.05367 13.27843,97.11128 2.30237,3.47617 4.90958,6.73361 7.50477,9.99224 6.39308,-18.86279 17.8514,-35.80104 23.30664,-54.94922 -0.7723,-7.38247 -8.51578,-11.07946 -11.86838,-17.16371 -10.57124,-12.86601 -21.19676,-25.69655 -31.20779,-39.00816 -0.33789,1.33919 -0.67578,2.67838 -1.01367,4.01757 z m 129.63281,19.98633 c -11.42477,21.69857 -24.1209,42.74326 -34.40625,65.0293 4.44251,10.08515 13.4465,17.20864 19.64453,26.1582 6.71236,7.68539 12.58467,16.81826 20.39258,23.14258 6.07623,0.56492 6.81656,-7.23397 9.84338,-10.81495 8.65399,-15.87195 18.04906,-31.41033 25.02185,-48.13232 -8.52372,-15.84629 -20.03327,-29.55411 -29.63935,-44.70174 -3.2252,-3.57339 -6.69772,-11.95459 -9.77625,-12.66604 -0.36016,0.66166 -0.72033,1.32331 -1.08049,1.98497 z m 77.58398,24.97656 c -7.41645,8.82905 -11.64283,19.8437 -17.64258,29.64258 3.79369,2.84682 4.2455,10.61659 9.82227,10.56641 3.95965,-2.18482 3.40837,-8.03372 5.73091,-11.57979 4.16633,-10.36899 6.50008,-21.56319 5.51518,-32.76787 -1.14192,1.37956 -2.28385,2.75912 -3.42578,4.13867 z M 206.2218,284.19622 c -6.08756,1.02252 -7.86063,8.59604 -10.33985,13.35547 -5.94255,11.47697 -10.80892,23.57608 -16.94336,34.89649 6.51082,4.82785 12.96585,9.79515 20.08985,13.70508 7.36623,-15.16646 15.66014,-29.78837 23.61719,-44.64454 -5.76975,-5.36822 -9.51884,-13.61907 -16.42383,-17.3125 z m 122.5332,22.47657 c -4.04749,0.73682 -3.58501,6.40496 -6.11719,8.96289 -4.08004,6.81306 -7.71527,13.99934 -9.17578,21.88086 9.63579,-4.83962 16.90633,-12.94709 23.76758,-21.03711 -4.02925,-2.06553 -3.70544,-8.90653 -8.47461,-9.80664 z m -94.36914,12.45703 c -7.46037,2.29148 -8.57532,11.67655 -12.82997,17.23725 -2.9075,5.43546 -5.82135,10.82446 -9.06651,16.09478 18.24791,6.30835 37.95605,8.06341 57.05859,5.35352 -12.42028,-11.69508 -21.46413,-26.67606 -33.58008,-38.44532 -0.50657,-0.17276 -1.04769,-0.25767 -1.58203,-0.24023 z"
       id="circle4"
       inkscape:connector-curvature="0" />
    <circle
       style="fill:none;fill-opacity:1;fill-rule:evenodd;stroke:#fffefd;stroke-width:7;stroke-miterlimit:4;stroke-dasharray:none;stroke-opacity:1"
       id="path895"
       cx="250"
       cy="250"
       r="126.58898" />
  </g>
</svg>
